<mxfile host="app.diagrams.net" modified="2023-08-03T14:35:15.973Z" agent="Mozilla/5.0 (Windows NT 10.0; Win64; x64) AppleWebKit/537.36 (KHTML, like Gecko) Chrome/115.0.0.0 Safari/537.36" etag="U2n1QUd0NDyatRHCHNb-" version="21.6.5" type="device">
  <diagram name="Página-1" id="0fyzyEFBXAp0R5ML0QrZ">
    <mxGraphModel dx="1257" dy="1915" grid="1" gridSize="10" guides="1" tooltips="1" connect="1" arrows="1" fold="1" page="1" pageScale="1" pageWidth="827" pageHeight="1169" math="0" shadow="0">
      <root>
        <mxCell id="0" />
        <mxCell id="1" parent="0" />
        <mxCell id="A1_eW9QEeQ6U2NEjliOb-15" value="" style="group;verticalAlign=top;" vertex="1" connectable="0" parent="1">
          <mxGeometry x="100" y="389" width="810" height="195" as="geometry" />
        </mxCell>
        <mxCell id="A1_eW9QEeQ6U2NEjliOb-1" value="Microcontrolador o SoC" style="rounded=1;whiteSpace=wrap;html=1;fontSize=26;verticalAlign=top;fillColor=#f8cecc;strokeColor=#b85450;" vertex="1" parent="A1_eW9QEeQ6U2NEjliOb-15">
          <mxGeometry width="810" height="195" as="geometry" />
        </mxCell>
        <mxCell id="A1_eW9QEeQ6U2NEjliOb-2" value="GPIO" style="rounded=1;whiteSpace=wrap;html=1;fontSize=26;verticalAlign=middle;" vertex="1" parent="A1_eW9QEeQ6U2NEjliOb-15">
          <mxGeometry x="445" y="61" width="100" height="50" as="geometry" />
        </mxCell>
        <mxCell id="A1_eW9QEeQ6U2NEjliOb-3" value="ADC" style="rounded=1;whiteSpace=wrap;html=1;fontSize=26;verticalAlign=middle;" vertex="1" parent="A1_eW9QEeQ6U2NEjliOb-15">
          <mxGeometry x="339" y="60" width="100" height="50" as="geometry" />
        </mxCell>
        <mxCell id="A1_eW9QEeQ6U2NEjliOb-4" value="DAC" style="rounded=1;whiteSpace=wrap;html=1;fontSize=26;verticalAlign=middle;" vertex="1" parent="A1_eW9QEeQ6U2NEjliOb-15">
          <mxGeometry x="232" y="60" width="100" height="50" as="geometry" />
        </mxCell>
        <mxCell id="A1_eW9QEeQ6U2NEjliOb-5" value="CLK" style="rounded=1;whiteSpace=wrap;html=1;fontSize=26;verticalAlign=middle;" vertex="1" parent="A1_eW9QEeQ6U2NEjliOb-15">
          <mxGeometry x="580" y="120" width="100" height="50" as="geometry" />
        </mxCell>
        <mxCell id="A1_eW9QEeQ6U2NEjliOb-6" value="TIMERS" style="rounded=1;whiteSpace=wrap;html=1;fontSize=26;verticalAlign=middle;" vertex="1" parent="A1_eW9QEeQ6U2NEjliOb-15">
          <mxGeometry x="660" y="61" width="126" height="50" as="geometry" />
        </mxCell>
        <mxCell id="A1_eW9QEeQ6U2NEjliOb-7" value="CPU" style="rounded=1;whiteSpace=wrap;html=1;fontSize=26;verticalAlign=middle;fillColor=#fff2cc;strokeColor=#d6b656;gradientColor=#ffd966;" vertex="1" parent="A1_eW9QEeQ6U2NEjliOb-15">
          <mxGeometry x="130" y="120" width="320" height="50" as="geometry" />
        </mxCell>
        <mxCell id="A1_eW9QEeQ6U2NEjliOb-8" value="RAM" style="rounded=1;whiteSpace=wrap;html=1;fontSize=26;verticalAlign=middle;fillColor=#dae8fc;strokeColor=#6c8ebf;" vertex="1" parent="A1_eW9QEeQ6U2NEjliOb-15">
          <mxGeometry x="10" y="120" width="110" height="50" as="geometry" />
        </mxCell>
        <mxCell id="A1_eW9QEeQ6U2NEjliOb-9" value="FLASH" style="rounded=1;whiteSpace=wrap;html=1;fontSize=26;verticalAlign=middle;fillColor=#dae8fc;strokeColor=#6c8ebf;" vertex="1" parent="A1_eW9QEeQ6U2NEjliOb-15">
          <mxGeometry x="461" y="120" width="110" height="50" as="geometry" />
        </mxCell>
        <mxCell id="A1_eW9QEeQ6U2NEjliOb-10" value="UART" style="rounded=1;whiteSpace=wrap;html=1;fontSize=26;verticalAlign=middle;" vertex="1" parent="A1_eW9QEeQ6U2NEjliOb-15">
          <mxGeometry x="10" y="60" width="110" height="50" as="geometry" />
        </mxCell>
        <mxCell id="A1_eW9QEeQ6U2NEjliOb-11" value="I&lt;sup style=&quot;font-size: 26px;&quot;&gt;2&lt;/sup&gt;C" style="rounded=1;whiteSpace=wrap;html=1;fontSize=26;verticalAlign=middle;" vertex="1" parent="A1_eW9QEeQ6U2NEjliOb-15">
          <mxGeometry x="126" y="60" width="100" height="50" as="geometry" />
        </mxCell>
        <mxCell id="A1_eW9QEeQ6U2NEjliOb-12" value="DMA" style="rounded=1;whiteSpace=wrap;html=1;fontSize=26;verticalAlign=middle;" vertex="1" parent="A1_eW9QEeQ6U2NEjliOb-15">
          <mxGeometry x="550" y="61" width="100" height="50" as="geometry" />
        </mxCell>
        <mxCell id="A1_eW9QEeQ6U2NEjliOb-14" value="WDT" style="rounded=1;whiteSpace=wrap;html=1;fontSize=26;verticalAlign=middle;" vertex="1" parent="A1_eW9QEeQ6U2NEjliOb-15">
          <mxGeometry x="686" y="120" width="100" height="50" as="geometry" />
        </mxCell>
        <mxCell id="A1_eW9QEeQ6U2NEjliOb-20" value="" style="group" vertex="1" connectable="0" parent="1">
          <mxGeometry x="100" y="222" width="810" height="165" as="geometry" />
        </mxCell>
        <mxCell id="A1_eW9QEeQ6U2NEjliOb-16" value="Hardware Abstraction Layer (HAL)&lt;br style=&quot;font-size: 26px;&quot;&gt;&lt;font style=&quot;font-size: 26px;&quot;&gt;Capa de Abstracción de Hardware (HAL)&lt;/font&gt;" style="rounded=1;whiteSpace=wrap;html=1;fontSize=26;verticalAlign=top;fillColor=#fff2cc;strokeColor=#d6b656;" vertex="1" parent="A1_eW9QEeQ6U2NEjliOb-20">
          <mxGeometry width="810" height="165" as="geometry" />
        </mxCell>
        <mxCell id="A1_eW9QEeQ6U2NEjliOb-17" value="Funciones de acceso al hardware" style="rounded=1;whiteSpace=wrap;html=1;fontSize=24;verticalAlign=top;" vertex="1" parent="A1_eW9QEeQ6U2NEjliOb-20">
          <mxGeometry x="100" y="86" width="250" height="70" as="geometry" />
        </mxCell>
        <mxCell id="A1_eW9QEeQ6U2NEjliOb-18" value="Board Support Package" style="rounded=1;whiteSpace=wrap;html=1;fontSize=24;verticalAlign=top;" vertex="1" parent="A1_eW9QEeQ6U2NEjliOb-20">
          <mxGeometry x="440" y="86" width="230" height="70" as="geometry" />
        </mxCell>
        <mxCell id="A1_eW9QEeQ6U2NEjliOb-22" value="" style="group" vertex="1" connectable="0" parent="1">
          <mxGeometry x="100" y="100" width="460" height="121" as="geometry" />
        </mxCell>
        <mxCell id="A1_eW9QEeQ6U2NEjliOb-19" value="Real Time Operative System (RTOS)&lt;br style=&quot;font-size: 25px;&quot;&gt;&lt;font style=&quot;font-size: 25px;&quot;&gt;Sistema Operativo de Tiempo Real&lt;/font&gt;" style="rounded=1;whiteSpace=wrap;html=1;fontSize=25;verticalAlign=top;fillColor=#dae8fc;strokeColor=#6c8ebf;" vertex="1" parent="A1_eW9QEeQ6U2NEjliOb-22">
          <mxGeometry width="459.99999999999994" height="120.22435897435898" as="geometry" />
        </mxCell>
        <mxCell id="A1_eW9QEeQ6U2NEjliOb-21" value="Kernel" style="rounded=1;whiteSpace=wrap;html=1;fontSize=24;verticalAlign=middle;fillColor=#f5f5f5;strokeColor=#666666;fontColor=#333333;" vertex="1" parent="A1_eW9QEeQ6U2NEjliOb-22">
          <mxGeometry x="45.4320987654321" y="81.4423076923077" width="357.77777777777777" height="38.782051282051285" as="geometry" />
        </mxCell>
        <mxCell id="A1_eW9QEeQ6U2NEjliOb-26" value="Libraries" style="rounded=1;whiteSpace=wrap;html=1;fontSize=26;verticalAlign=middle;" vertex="1" parent="1">
          <mxGeometry x="715" y="160" width="195" height="60" as="geometry" />
        </mxCell>
        <mxCell id="A1_eW9QEeQ6U2NEjliOb-27" value="Drivers" style="rounded=1;whiteSpace=wrap;html=1;fontSize=26;verticalAlign=middle;" vertex="1" parent="1">
          <mxGeometry x="565" y="160" width="145" height="60" as="geometry" />
        </mxCell>
        <mxCell id="A1_eW9QEeQ6U2NEjliOb-28" value="Libraries" style="rounded=1;whiteSpace=wrap;html=1;fontSize=26;verticalAlign=middle;fillColor=#e1d5e7;strokeColor=#9673a6;" vertex="1" parent="1">
          <mxGeometry x="100" y="53" width="220" height="45" as="geometry" />
        </mxCell>
        <mxCell id="A1_eW9QEeQ6U2NEjliOb-29" value="Hilos" style="rounded=1;whiteSpace=wrap;html=1;fontSize=26;verticalAlign=middle;fillColor=#e1d5e7;strokeColor=#9673a6;" vertex="1" parent="1">
          <mxGeometry x="326" y="53" width="584" height="45" as="geometry" />
        </mxCell>
        <mxCell id="A1_eW9QEeQ6U2NEjliOb-41" value="Aplicaciones bare metal" style="rounded=1;whiteSpace=wrap;html=1;fontSize=26;verticalAlign=middle;fillColor=#f5f5f5;strokeColor=#666666;fontColor=#333333;" vertex="1" parent="1">
          <mxGeometry x="565" y="101" width="345" height="52" as="geometry" />
        </mxCell>
        <mxCell id="A1_eW9QEeQ6U2NEjliOb-42" value="Aplicaciones de usuario" style="rounded=1;whiteSpace=wrap;html=1;fontSize=26;verticalAlign=middle;fillColor=#d5e8d4;strokeColor=#82b366;" vertex="1" parent="1">
          <mxGeometry x="100" y="-17" width="810" height="67" as="geometry" />
        </mxCell>
        <mxCell id="A1_eW9QEeQ6U2NEjliOb-44" value="" style="shape=curlyBracket;whiteSpace=wrap;html=1;rounded=1;flipH=1;labelPosition=right;verticalLabelPosition=middle;align=left;verticalAlign=middle;strokeWidth=5;size=0.5;fillColor=#f8cecc;strokeColor=#b85450;" vertex="1" parent="1">
          <mxGeometry x="940" y="389" width="30" height="201" as="geometry" />
        </mxCell>
        <mxCell id="A1_eW9QEeQ6U2NEjliOb-45" value="Hardware" style="text;html=1;align=center;verticalAlign=middle;resizable=0;points=[];autosize=1;strokeColor=none;fillColor=none;fontSize=30;" vertex="1" parent="1">
          <mxGeometry x="980" y="461.5" width="150" height="50" as="geometry" />
        </mxCell>
        <mxCell id="A1_eW9QEeQ6U2NEjliOb-46" value="" style="shape=curlyBracket;whiteSpace=wrap;html=1;rounded=1;flipH=1;labelPosition=right;verticalLabelPosition=middle;align=left;verticalAlign=middle;strokeWidth=5;size=0.5;fillColor=#f8cecc;strokeColor=#b85450;" vertex="1" parent="1">
          <mxGeometry x="940" y="-10" width="30" height="391" as="geometry" />
        </mxCell>
        <mxCell id="A1_eW9QEeQ6U2NEjliOb-47" value="Software" style="text;html=1;align=center;verticalAlign=middle;resizable=0;points=[];autosize=1;strokeColor=none;fillColor=none;fontSize=30;" vertex="1" parent="1">
          <mxGeometry x="985" y="160" width="140" height="50" as="geometry" />
        </mxCell>
        <mxCell id="A1_eW9QEeQ6U2NEjliOb-50" value="Capas en los sistemas embebidos" style="text;html=1;align=center;verticalAlign=middle;resizable=0;points=[];autosize=1;strokeColor=none;fillColor=none;fontSize=35;" vertex="1" parent="1">
          <mxGeometry x="230" y="-115" width="560" height="60" as="geometry" />
        </mxCell>
      </root>
    </mxGraphModel>
  </diagram>
</mxfile>
